<?xml version="1.0" standalone="no"?>
<!DOCTYPE svg PUBLIC "-//W3C//DTD SVG 20010904//EN"
 "http://www.w3.org/TR/2001/REC-SVG-20010904/DTD/svg10.dtd">
<svg version="1.0" xmlns="http://www.w3.org/2000/svg"
 width="700.000000pt" height="700.000000pt" viewBox="0 0 700.000000 700.000000"
 preserveAspectRatio="xMidYMid meet">
<metadata>
Created by potrace 1.11, written by Peter Selinger 2001-2013
</metadata>
<g transform="translate(0.000000,700.000000) scale(0.100000,-0.100000)"
fill="#000000" stroke="none">
<path d="M5539 6962 c-92 -59 -120 -164 -66 -254 41 -70 83 -96 164 -103 32
-3 87 -7 123 -11 209 -18 419 -117 573 -269 144 -143 246 -371 262 -583 10
-121 13 -146 21 -167 28 -75 109 -129 190 -127 85 1 148 48 174 128 14 40 8
207 -9 304 -20 108 -71 272 -106 342 -8 15 -22 43 -31 61 -34 66 -145 224
-197 278 -191 202 -435 343 -687 395 -91 20 -182 31 -265 33 -95 2 -102 1
-146 -27z"/>
<path d="M2655 6696 c-5 -2 -30 -9 -55 -17 -25 -7 -52 -18 -60 -24 -8 -6 -28
-17 -43 -25 -38 -19 -108 -87 -140 -135 -14 -22 -31 -62 -38 -90 -7 -27 -23
-75 -37 -105 -14 -30 -31 -74 -37 -97 -17 -62 -10 -188 13 -255 11 -32 19 -58
17 -58 -2 0 -14 17 -26 38 -13 20 -26 39 -29 42 -3 3 -30 41 -59 85 -67 99
-112 148 -176 190 -103 67 -220 79 -326 34 -30 -13 -55 -27 -57 -31 -2 -4 -8
-8 -14 -8 -18 0 -81 -55 -119 -103 -21 -26 -46 -74 -56 -105 -9 -31 -30 -77
-47 -101 -79 -118 -91 -248 -35 -378 11 -26 47 -86 79 -134 33 -49 60 -90 60
-93 0 -3 -12 7 -27 21 -48 45 -145 84 -214 87 -179 8 -372 -138 -409 -307 -5
-26 -17 -62 -27 -80 -57 -111 -67 -276 -23 -392 13 -33 87 -154 164 -270 78
-115 145 -215 149 -222 4 -7 -16 3 -45 23 -151 99 -327 73 -474 -71 -83 -82
-107 -136 -108 -245 0 -102 20 -164 88 -270 26 -39 51 -77 56 -83 9 -11 218
-314 421 -612 37 -55 122 -179 188 -275 66 -96 155 -227 198 -290 84 -122 282
-411 392 -570 146 -213 205 -299 259 -380 31 -47 60 -87 63 -90 3 -3 39 -54
79 -115 87 -131 199 -281 261 -349 326 -362 742 -611 1199 -719 101 -24 170
-37 310 -56 69 -10 451 -7 510 3 19 4 64 11 100 17 100 16 110 18 195 39 103
26 99 25 175 50 433 144 839 437 1117 805 125 166 229 351 306 546 46 115 111
333 120 400 2 20 7 41 10 45 2 5 8 36 11 69 4 33 11 89 15 125 9 69 8 481 -1
496 -3 5 -9 29 -12 54 -21 156 -50 277 -106 435 -40 116 -55 151 -115 280 -21
44 -50 107 -65 140 -15 33 -41 89 -57 125 -105 229 -219 540 -468 1280 -67
201 -142 424 -167 495 -50 148 -98 228 -170 286 -169 133 -475 63 -573 -131
-37 -74 -50 -179 -33 -266 5 -27 11 -60 14 -74 3 -14 18 -90 34 -170 16 -80
31 -156 34 -170 15 -81 16 -86 116 -585 45 -225 84 -420 86 -432 3 -17 -11
-32 -72 -77 l-77 -55 -17 22 c-21 28 -260 374 -580 842 -139 204 -283 413
-319 465 -35 52 -99 145 -140 205 -41 61 -79 112 -83 113 -4 2 -8 7 -8 12 0 4
-57 91 -126 191 -70 101 -174 254 -232 339 -59 85 -134 196 -169 245 -34 50
-92 135 -130 190 -107 158 -179 227 -275 261 -41 14 -141 26 -163 20z"/>
<path d="M4591 6595 c-102 -46 -144 -160 -95 -261 42 -88 77 -104 279 -119
158 -12 305 -49 456 -114 551 -238 946 -770 985 -1326 10 -150 12 -161 28
-193 37 -72 122 -118 199 -107 48 6 101 40 132 84 29 41 30 47 31 159 1 65 -5
155 -11 202 -7 47 -15 103 -18 125 -25 177 -127 454 -234 640 -106 183 -299
405 -458 526 -260 200 -592 335 -940 384 -22 3 -103 8 -180 10 -113 5 -146 3
-174 -10z"/>
<path d="M515 2514 c-51 -19 -93 -58 -116 -110 -16 -34 -18 -59 -14 -160 4
-119 7 -147 26 -279 50 -356 223 -735 448 -980 212 -229 483 -403 775 -495
150 -48 268 -73 446 -95 19 -2 90 -7 158 -10 108 -5 127 -4 168 14 132 59 162
234 55 324 -40 33 -80 43 -200 51 -52 4 -115 11 -139 17 -25 5 -57 11 -71 13
-57 8 -202 61 -311 113 -63 31 -117 59 -120 63 -3 3 -30 21 -60 39 -132 80
-345 273 -437 396 -20 28 -40 52 -43 55 -19 15 -116 175 -159 263 -88 178
-136 354 -147 533 -7 116 -17 154 -51 195 -50 58 -133 80 -208 53z"/>
<path d="M154 1550 c-65 -14 -111 -54 -141 -123 -12 -28 -11 -174 2 -272 75
-550 481 -997 1010 -1114 133 -29 160 -33 275 -36 97 -4 107 -2 153 22 129 71
135 257 11 329 -42 25 -61 28 -200 38 -352 26 -636 210 -775 504 -34 73 -64
160 -75 219 -4 21 -8 47 -10 58 -3 11 -7 52 -10 90 -2 39 -7 89 -9 112 -11
118 -117 197 -231 173z"/>
</g>
</svg>
